<?xml version="1.0" encoding="UTF-8"?>
<svg id="uuid-394337b9-bf0f-4a24-95df-417d0e83f43a" data-name="Layer 1" xmlns="http://www.w3.org/2000/svg" viewBox="0 0 349.36 566.06">
  <path d="m283.11,235.25c9.16-5.92,16.38-11.79,21.62-17.62,5.25-5.84,7.88-10.83,7.88-15,0-6.83-4.42-25.41-13.25-55.75l-1.25-5,28-11c4,11.5,7.16,23.79,9.5,36.88,2.33,13.09,3.5,24.71,3.5,34.88,0,16.33-6.42,31.46-19.25,45.38-12.84,13.91-30.09,25.38-51.75,34.38l-15.25-31.5c11-4.5,21.08-9.71,30.25-15.62Zm25-173.12c5,5.17,10.08,10.25,15.25,15.25l7.75,7.75-5.75,5.75c-9.67,9.67-15.42,15.5-17.25,17.5l-23.25-23.25,23.25-23Z" style="stroke-width: 0px;"/>
  <path d="m275.42,198.34c7.65-5.15,12.12-11.53,13.43-19.12-3.2.7-7.05,1.05-11.55,1.05-6.5,0-12.4-1.02-17.7-3.08-5.3-2.05-9.1-5.33-11.4-9.83-1.6-3.2-2.4-6.95-2.4-11.25,0-5.2,1.12-10.4,3.38-15.6,2.25-5.2,5.25-9.5,9-12.9,3.75-3.4,7.77-5.1,12.08-5.1,5.9,0,11.1,2.6,15.6,7.8,4.5,5.2,7.95,11.73,10.35,19.58,2.4,7.85,3.6,15.58,3.6,23.17,0,12.4-4.72,22.95-14.17,31.65-9.45,8.7-22.63,14.75-39.52,18.15l-3.9-12c14.5-3.2,25.58-7.38,33.22-12.52Zm-9.6-33.08c3.85,1.2,8.27,1.8,13.28,1.8,2.9,0,6.1-.25,9.6-.75-1-8.1-3.13-15.15-6.38-21.15-3.25-6-7.38-9.15-12.38-9.45-2.2-.1-4.35.8-6.45,2.7-2.1,1.9-3.8,4.35-5.1,7.35-1.3,3-1.95,5.85-1.95,8.55,0,2.2.45,4.05,1.35,5.55,1.5,2.4,4.17,4.2,8.03,5.4Z" style="stroke-width: 0px;"/>
  <path d="m224.15,170.46c0-13.6-.28-27.68-.83-42.23-.55-14.55-1.18-23.97-1.88-28.27l12-2.55c.6,4.6,1.22,14.62,1.88,30.08.65,15.45.97,30.13.97,44.03s-.35,24.3-1.05,30.9l-12.15-1.5c.7-6,1.05-16.15,1.05-30.45Z" style="stroke-width: 0px;"/>
  <path d="m181.8,215.41c5.2-3.6,9.27-7.45,12.23-11.55,2.95-4.1,4.42-7.95,4.42-11.55,0-5.1-2.55-17.6-7.65-37.5l11.55-4.35c2.2,7.1,4.02,14.6,5.47,22.5,1.45,7.9,2.17,14.35,2.17,19.35,0,5.9-1.75,11.67-5.25,17.33-3.5,5.65-8.33,10.75-14.47,15.3-6.15,4.55-13.08,8.17-20.78,10.88l-5.1-11.7c6.4-2.2,12.2-5.1,17.4-8.7Z" style="stroke-width: 0px;"/>
  <path d="m148.63,191.36c-1.1-11.6-1.95-21.6-2.55-30-.6-8.4-.9-16.55-.9-24.45,0-4,.05-6.85.15-8.55.2-4.4,1.67-7.97,4.43-10.73,2.75-2.75,6.02-4.12,9.82-4.12,1.7,0,3.35.3,4.95.9,4-8.3,8.25-15,12.75-20.1s9.4-7.8,14.7-8.1c5.1-.3,9.57,1.03,13.43,3.98,3.85,2.95,6.8,6.88,8.85,11.77,2.05,4.9,3.08,10,3.08,15.3s-1.05,9.98-3.15,14.32c-2.1,4.35-5.2,7.63-9.3,9.83-2,1-4.1,1.5-6.3,1.5-3.7,0-8.4-1.2-14.1-3.6-5.7-2.4-13.1-6.25-22.2-11.55-.8-.4-1.45-.6-1.95-.6-1.8,0-2.75,1.15-2.85,3.45l-.15,5.7c0,9.6.9,25.2,2.7,46.8l.9,11.1-11.85,2.1-.45-4.95Zm39.9-63.9c4.2,1.8,7.5,2.7,9.9,2.7,1.1,0,2-.2,2.7-.6,1.8-.9,3.15-2.4,4.05-4.5.9-2.1,1.35-4.55,1.35-7.35,0-4.8-1.23-9.2-3.68-13.2-2.45-4-5.62-6-9.52-6-5.4,0-11.8,7-19.2,21,5.4,3.5,10.2,6.15,14.4,7.95Z" style="stroke-width: 0px;"/>
  <path d="m41.88,227.44c-8.87-4.47-15.83-10.83-20.9-19.1-5.07-8.27-7.6-17.93-7.6-29,0-8.13,1.33-16.73,4-25.8,2.67-9.07,5.73-17.07,9.2-24l13.6,6.4c-7.47,15.73-11.2,29.47-11.2,41.2,0,12.67,3.73,22.33,11.2,29,7.47,6.67,18.2,10,32.2,10,9.33,0,17.57-1.43,24.7-4.3,7.13-2.87,12.83-6.5,17.1-10.9,4.27-4.4,7.13-8.87,8.6-13.4.27-.93-1.3-2.1-4.7-3.5-3.4-1.4-9.7-3.43-18.9-6.1-10.53-2.93-17.87-6.1-22-9.5-4.13-3.4-6.2-8.43-6.2-15.1,0-9.87,2.53-19.2,7.6-28,5.07-8.8,11.73-15.87,20-21.2,8.27-5.33,17.07-8,26.4-8,3.6,0,7.13.43,10.6,1.3,3.47.87,6.13,1.97,8,3.3l-5.4,15.8c-3.6-1.6-8-2.4-13.2-2.4-6.8,0-13.13,1.8-19,5.4-5.87,3.6-10.57,8.13-14.1,13.6-3.53,5.47-5.3,10.73-5.3,15.8,0,2.53,1.43,4.73,4.3,6.6,2.87,1.87,8.63,4.07,17.3,6.6,8.53,2.53,14.9,4.73,19.1,6.6,4.2,1.87,7.1,3.9,8.7,6.1,1.6,2.2,2.4,5.03,2.4,8.5,0,8.13-2.83,16.13-8.5,24-5.67,7.87-13.53,14.3-23.6,19.3-10.07,5-21.37,7.5-33.9,7.5-11.47,0-21.63-2.23-30.5-6.7Z" style="stroke-width: 0px;"/>
  <path d="m209.55,382.31c0-23-.71-47.12-2.12-72.38-1.42-25.25-3.04-42.96-4.88-53.12l31.25-7.25c1.5,9.67,2.83,26.59,4,50.75,1.16,24.17,1.75,47.92,1.75,71.25,0,28.84-1,50.5-3,65l-29.5-3.25c1.66-11,2.5-28,2.5-51Z" style="stroke-width: 0px;"/>
  <path d="m136.1,423.01c-1.1-11.6-1.95-21.6-2.55-30-.6-8.4-.9-16.55-.9-24.45,0-4,.05-6.85.15-8.55.2-4.4,1.67-7.97,4.42-10.73s6.02-4.12,9.83-4.12c1.7,0,3.35.3,4.95.9,4-8.3,8.25-15,12.75-20.1,4.5-5.1,9.4-7.8,14.7-8.1,5.1-.3,9.57,1.03,13.42,3.98,3.85,2.95,6.8,6.88,8.85,11.77,2.05,4.9,3.08,10,3.08,15.3s-1.05,9.98-3.15,14.33c-2.1,4.35-5.2,7.63-9.3,9.83-2,1-4.1,1.5-6.3,1.5-3.7,0-8.4-1.2-14.1-3.6-5.7-2.4-13.1-6.25-22.2-11.55-.8-.4-1.45-.6-1.95-.6-1.8,0-2.75,1.15-2.85,3.45l-.15,5.7c0,9.6.9,25.2,2.7,46.8l.9,11.1-11.85,2.1-.45-4.95Zm39.9-63.9c4.2,1.8,7.5,2.7,9.9,2.7,1.1,0,2-.2,2.7-.6,1.8-.9,3.15-2.4,4.05-4.5.9-2.1,1.35-4.55,1.35-7.35,0-4.8-1.23-9.2-3.67-13.2-2.45-4-5.62-6-9.52-6-5.4,0-11.8,7-19.2,21,5.4,3.5,10.2,6.15,14.4,7.95Z" style="stroke-width: 0px;"/>
  <path d="m88.07,338.44c-6.65-3.35-11.88-8.13-15.67-14.33-3.8-6.2-5.7-13.45-5.7-21.75,0-6.1,1-12.55,3-19.35,2-6.8,4.3-12.8,6.9-18l10.2,4.8c-5.6,11.8-8.4,22.1-8.4,30.9,0,9.5,2.8,16.75,8.4,21.75,5.6,5,13.65,7.5,24.15,7.5,7,0,13.17-1.08,18.52-3.23,5.35-2.15,9.62-4.88,12.83-8.17,3.2-3.3,5.35-6.65,6.45-10.05.2-.7-.97-1.58-3.52-2.62-2.55-1.05-7.27-2.57-14.17-4.58-7.9-2.2-13.4-4.58-16.5-7.12-3.1-2.55-4.65-6.32-4.65-11.33,0-7.4,1.9-14.4,5.7-21,3.8-6.6,8.8-11.9,15-15.9,6.2-4,12.8-6,19.8-6,2.7,0,5.35.33,7.95.97,2.6.65,4.6,1.48,6,2.47l-4.05,11.85c-2.7-1.2-6-1.8-9.9-1.8-5.1,0-9.85,1.35-14.25,4.05-4.4,2.7-7.93,6.1-10.58,10.2-2.65,4.1-3.98,8.05-3.98,11.85,0,1.9,1.07,3.55,3.23,4.95,2.15,1.4,6.47,3.05,12.98,4.95,6.4,1.9,11.17,3.55,14.32,4.95,3.15,1.4,5.33,2.93,6.53,4.58,1.2,1.65,1.8,3.78,1.8,6.38,0,6.1-2.13,12.1-6.38,18-4.25,5.9-10.15,10.73-17.7,14.48-7.55,3.75-16.03,5.62-25.42,5.62-8.6,0-16.23-1.68-22.88-5.03Z" style="stroke-width: 0px;"/>
  <path d="m23.2,374.01c6.93-4.8,12.37-9.93,16.3-15.4,3.93-5.47,5.9-10.6,5.9-15.4,0-6.8-3.4-23.47-10.2-50l15.4-5.8c2.93,9.47,5.37,19.47,7.3,30,1.93,10.54,2.9,19.13,2.9,25.8,0,7.87-2.33,15.57-7,23.1-4.67,7.53-11.1,14.33-19.3,20.4-8.2,6.07-17.43,10.9-27.7,14.5l-6.8-15.6c8.53-2.93,16.27-6.8,23.2-11.6Z" style="stroke-width: 0px;"/>
</svg>